<svg xmlns="http://www.w3.org/2000/svg" xmlns:xlink="http://www.w3.org/1999/xlink" width="1920" zoomAndPan="magnify" viewBox="0 0 1440 225" height="300" preserveAspectRatio="xMidYMid meet" version="1.2"><defs><clipPath id="75ed268954"><path d="M 77 22.5 L 1363.050781 22.5 L 1363.050781 204.75 L 77 204.75 Z M 77 22.5 "/></clipPath></defs><g id="a8f340b97f"><g clip-rule="nonzero" clip-path="url(#75ed268954)"><path style=" stroke:none;fill-rule:nonzero;fill:#00401c;fill-opacity:1;" d="M 207.335938 31.5625 C 219.832031 37.746094 231.523438 46.914062 239.816406 58.203125 C 240.300781 58.859375 240.789062 59.507812 241.285156 60.152344 C 250.660156 72.660156 256.242188 87.765625 258.148438 103.222656 C 259.835938 119.410156 257.460938 135.777344 250.847656 150.664062 C 243.914062 165.785156 233.214844 178.566406 219.726562 188.265625 C 207.316406 197.007812 192.121094 202.675781 177.03125 204.171875 C 160.277344 205.492188 143.839844 202.957031 128.621094 195.707031 C 120.765625 191.878906 113.753906 187.226562 107.222656 181.425781 L 106.554688 180.835938 C 99.9375 174.925781 94.394531 168.09375 89.847656 160.472656 L 89.375 159.695312 C 82.175781 147.652344 77.367188 133.25 77.125 119.128906 L 77.113281 118.210938 L 77.101562 117.222656 C 76.941406 100.058594 80.082031 83.898438 88.550781 68.792969 C 91.832031 63.085938 95.644531 57.808594 100.128906 52.984375 C 100.835938 52.222656 101.5 51.441406 102.160156 50.644531 C 108.015625 43.964844 115.351562 38.738281 123.019531 34.359375 L 123.910156 33.847656 C 149.179688 19.410156 181.246094 19.058594 207.335938 31.5625 M 154.214844 55.707031 L 153.292969 55.933594 C 142.488281 58.644531 133.398438 64.242188 125.386719 71.917969 C 118.363281 78.828125 113.28125 87.800781 110.535156 97.257812 C 107.667969 107.804688 107.65625 118.5625 110.300781 129.152344 C 112.675781 137.953125 117.125 145.683594 123.019531 152.566406 L 123.882812 153.589844 C 126.011719 156.058594 128.347656 158.082031 130.917969 160.078125 L 131.925781 160.921875 C 139.78125 167.269531 149.492188 170.710938 159.351562 172.332031 C 169.800781 173.867188 180.421875 172.269531 190.25 168.554688 C 196.132812 166.191406 201.625 162.714844 206.34375 158.496094 L 207.507812 157.488281 C 214.933594 150.972656 220.402344 142.578125 223.679688 133.257812 C 227.007812 123.398438 227.980469 112.976562 226.105469 102.691406 C 223.964844 92.210938 219.453125 82.890625 212.523438 74.78125 C 211.664062 73.8125 210.789062 72.859375 209.898438 71.917969 L 209.15625 71.109375 C 202.730469 64.371094 193.890625 59.472656 185.042969 56.769531 C 183.726562 56.394531 182.402344 56.039062 181.070312 55.707031 C 180.792969 55.636719 180.515625 55.566406 180.230469 55.492188 C 172.160156 53.527344 162.253906 53.664062 154.214844 55.707031 M 354.042969 22.894531 C 440.664062 22.894531 440.664062 22.894531 454.234375 30.660156 C 458.105469 32.964844 461.367188 36.015625 464.617188 39.105469 L 465.375 39.785156 C 471.132812 45.140625 475.042969 52.738281 477.648438 60.058594 L 478.101562 61.320312 C 480.984375 69.96875 481.46875 79.753906 479.746094 88.695312 C 479.476562 89.964844 479.171875 91.21875 478.832031 92.472656 L 478.617188 93.289062 C 475.941406 102.890625 470.429688 111.367188 463.398438 118.347656 C 456.1875 125.269531 447.324219 129.78125 437.679688 132.230469 C 432.214844 133.523438 426.875 133.644531 421.296875 133.628906 L 419.402344 133.628906 C 417.082031 133.625 414.761719 133.621094 412.4375 133.613281 L 396.691406 133.589844 L 396.691406 101.960938 C 412.390625 101.839844 412.390625 101.839844 417.320312 101.808594 C 418.796875 101.792969 418.796875 101.792969 420.273438 101.777344 C 420.925781 101.773438 421.574219 101.769531 422.226562 101.765625 C 427.34375 101.746094 431.992188 101.421875 436.554688 98.847656 L 437.292969 98.457031 C 438.894531 97.582031 440.054688 96.542969 441.316406 95.242188 L 442.105469 95.242188 L 442.433594 94.535156 C 442.882812 93.6875 443.375 93.039062 443.984375 92.300781 C 446.027344 89.609375 447.730469 86.21875 448.328125 82.867188 C 448.824219 77.441406 448.511719 72.550781 446.203125 67.542969 C 444.058594 63.519531 441.332031 60.546875 437.535156 58.058594 C 422.636719 49.582031 398.042969 54.636719 385.632812 54.523438 L 385.632812 204.355469 L 354.042969 204.355469 Z M 550.636719 61.984375 C 563.15625 61.726562 575.421875 64.710938 586.453125 70.621094 C 592.046875 73.71875 596.957031 77.46875 601.652344 81.800781 L 602.746094 82.808594 C 611.382812 91.128906 617.367188 101.964844 620.808594 113.375 C 621.335938 115.222656 621.78125 117.082031 622.1875 118.960938 L 622.382812 119.855469 C 623.332031 124.378906 623.472656 128.882812 623.46875 133.492188 L 623.46875 134.328125 C 623.460938 137.167969 623.328125 139.851562 622.976562 142.683594 L 525.828125 142.683594 L 525.828125 119.355469 L 589.015625 118.960938 C 585.660156 111.824219 582.019531 105.933594 575.660156 101.269531 C 569.667969 97.347656 563.148438 94.503906 555.921875 93.976562 C 554.8125 93.9375 553.695312 93.925781 552.582031 93.933594 L 551.382812 93.9375 C 544.132812 94.050781 537.449219 96.300781 531.226562 99.972656 C 525.472656 103.539062 521.109375 108.816406 517.878906 114.6875 C 514.089844 121.824219 513.234375 129.089844 513.511719 137.085938 C 513.894531 143.414062 516.300781 149.496094 519.675781 154.824219 C 523.941406 161 529.195312 165.667969 535.949219 168.921875 C 542.464844 171.746094 549.164062 172.878906 556.238281 172.332031 C 563.1875 171.503906 569.445312 169.234375 575.191406 165.214844 L 576.207031 164.191406 C 576.953125 163.570312 577.445312 163.265625 578.402344 163.0625 C 579.410156 162.996094 580.40625 162.996094 581.417969 163.015625 L 582.578125 163.015625 C 583.832031 163.015625 585.089844 163.03125 586.34375 163.046875 C 587.21875 163.050781 588.089844 163.054688 588.964844 163.054688 C 591.257812 163.0625 593.554688 163.082031 595.847656 163.105469 C 598.191406 163.125 600.535156 163.132812 602.875 163.144531 C 607.46875 163.164062 612.0625 163.199219 616.65625 163.238281 C 614.355469 170.425781 609.183594 176.84375 604.019531 182.214844 L 603.433594 182.84375 C 595.308594 191.464844 584.960938 197.921875 573.625 201.4375 C 560.957031 205.085938 547.859375 205.433594 535.039062 202.398438 C 530.449219 201.25 526.144531 199.671875 521.878906 197.632812 L 521.011719 197.222656 C 515.136719 194.378906 509.765625 190.757812 505.03125 186.253906 C 504.230469 185.492188 503.40625 184.792969 502.554688 184.09375 C 494.375 176.925781 488.582031 166.496094 485.09375 156.335938 C 481.082031 144.308594 480.136719 131.617188 482.574219 119.148438 C 485.25 106.597656 491.027344 95.167969 499.5625 85.617188 C 508.132812 76.191406 518.777344 69.207031 530.914062 65.246094 C 537.292969 63.257812 543.964844 62.199219 550.636719 61.984375 M 1033.289062 70.089844 C 1036.628906 71.871094 1039.789062 73.929688 1042.769531 76.265625 L 1043.917969 77.164062 C 1053.519531 84.871094 1061.175781 94.4375 1065.820312 105.914062 C 1067.820312 111.082031 1069.398438 116.414062 1070.335938 121.878906 L 1070.472656 122.660156 C 1071.28125 127.933594 1071.257812 133.28125 1071.246094 138.605469 L 1071.246094 140.769531 C 1071.246094 142.707031 1071.246094 144.648438 1071.242188 146.585938 C 1071.238281 148.621094 1071.238281 150.65625 1071.238281 152.6875 C 1071.238281 156.53125 1071.234375 160.375 1071.230469 164.21875 C 1071.226562 169.417969 1071.222656 174.617188 1071.21875 179.816406 C 1071.214844 187.996094 1071.207031 196.175781 1071.203125 204.355469 L 1039.609375 204.355469 L 1039.597656 197.585938 C 1039.585938 190.183594 1039.5625 182.785156 1039.535156 175.382812 C 1039.519531 170.898438 1039.507812 166.414062 1039.5 161.929688 C 1039.496094 158.015625 1039.484375 154.105469 1039.46875 150.191406 C 1039.460938 148.125 1039.453125 146.054688 1039.453125 143.988281 C 1039.453125 142.035156 1039.445312 140.082031 1039.433594 138.128906 C 1039.429688 137.417969 1039.429688 136.707031 1039.433594 135.996094 C 1039.453125 128.539062 1038.296875 121.675781 1034.871094 115.007812 L 1034.230469 113.742188 C 1031.140625 108.070312 1026.570312 103.285156 1021.144531 99.800781 C 1015.484375 96.34375 1009.085938 94.214844 1002.449219 93.972656 C 998.09375 93.867188 994.070312 94.085938 989.851562 95.242188 L 988.628906 95.574219 C 981.761719 97.671875 975.898438 101.597656 970.894531 106.707031 C 966.410156 111.824219 963.46875 117.933594 961.8125 124.496094 L 961.519531 125.65625 C 960.125 132.390625 960.910156 139.359375 962.898438 145.871094 C 964.570312 150.582031 966.949219 154.628906 970.105469 158.496094 L 970.851562 159.441406 C 974.792969 164.1875 980.25 167.625 985.945312 169.898438 C 992.738281 172.390625 999.945312 173.101562 1007.085938 171.90625 C 1011.089844 171.140625 1014.664062 169.839844 1018.285156 167.984375 L 1019.546875 167.355469 C 1022.488281 165.777344 1024.785156 163.722656 1027.160156 161.414062 L 1028.15625 160.472656 L 1028.550781 160.472656 L 1028.550781 198.425781 C 1022.089844 201.011719 1016.050781 202.996094 1009.199219 203.960938 L 1008.394531 204.074219 C 996.824219 205.550781 984.945312 203.839844 974.101562 199.660156 C 966.503906 196.4375 959.675781 192.472656 953.519531 186.960938 L 951.816406 185.503906 C 942.894531 177.574219 936.292969 166.871094 932.492188 155.597656 C 930.40625 149.058594 929.410156 142.40625 929.035156 135.566406 L 928.960938 134.273438 C 928.933594 133.113281 928.96875 131.980469 929.035156 130.820312 L 929.082031 129.921875 C 929.730469 119.042969 932.519531 108.777344 937.722656 99.195312 L 938.105469 98.46875 C 940.679688 93.617188 943.871094 89.472656 947.585938 85.441406 C 948.277344 84.679688 948.945312 83.90625 949.59375 83.109375 C 956.117188 75.445312 966.152344 69.792969 975.457031 66.328125 C 994.484375 59.597656 1015.316406 60.785156 1033.289062 70.089844 M 1290.234375 61.984375 C 1302.839844 61.773438 1315.34375 64.722656 1326.410156 70.824219 C 1331.535156 73.792969 1336.242188 77.320312 1340.53125 81.40625 L 1341.203125 82.039062 C 1350.109375 90.484375 1356.496094 100.828125 1360.089844 112.59375 C 1361.710938 118.140625 1362.808594 123.851562 1363.042969 129.636719 L 1363.074219 130.414062 C 1363.53125 143.046875 1360.636719 155.480469 1354.847656 166.699219 C 1349.023438 177.59375 1340.402344 186.832031 1330.027344 193.492188 C 1321.785156 198.554688 1313.273438 201.761719 1303.804688 203.5625 L 1302.988281 203.722656 C 1291.382812 205.886719 1278.816406 204.304688 1267.757812 200.40625 C 1257.871094 196.734375 1249.378906 191.101562 1241.804688 183.796875 L 1240.902344 182.972656 C 1236.277344 178.597656 1232.597656 173.160156 1229.5625 167.589844 L 1229.148438 166.835938 C 1225.421875 159.9375 1223.121094 152.75 1221.664062 145.054688 L 1221.503906 144.226562 C 1219.414062 132.761719 1220.933594 120.179688 1224.785156 109.242188 C 1225.621094 107.03125 1226.570312 104.886719 1227.585938 102.753906 L 1228 101.886719 C 1233.308594 90.890625 1241.605469 81.28125 1251.691406 74.410156 C 1262.164062 67.449219 1273.839844 63.265625 1286.378906 62.132812 C 1287.664062 62.0625 1288.949219 62.027344 1290.234375 61.984375 M 1270.113281 99.921875 C 1263.839844 104.242188 1259.21875 109.933594 1255.921875 116.789062 C 1252.972656 123.460938 1251.871094 130.371094 1252.546875 137.625 C 1253.386719 144.636719 1256.078125 151.371094 1260.285156 157.042969 C 1263.851562 161.671875 1267.886719 165.140625 1273 167.984375 L 1273.980469 168.546875 C 1280.007812 171.8125 1286.804688 172.972656 1293.585938 172.824219 C 1300.78125 172.539062 1307.578125 170.21875 1313.675781 166.402344 C 1315.050781 165.40625 1316.339844 164.34375 1317.625 163.238281 L 1318.332031 162.707031 C 1322.851562 159.207031 1326.148438 153.628906 1328.484375 148.503906 C 1330.21875 144.25 1331.203125 139.757812 1331.449219 135.171875 L 1331.496094 134.273438 C 1331.691406 126.953125 1329.773438 120.121094 1326.355469 113.699219 C 1325.203125 111.625 1323.863281 109.734375 1322.367188 107.894531 L 1321.558594 106.886719 C 1317.195312 101.75 1311.371094 97.9375 1305.066406 95.636719 C 1293.4375 91.644531 1280.429688 93.222656 1270.113281 99.921875 M 786.863281 62.035156 C 790.925781 62.023438 794.988281 62.019531 799.046875 62.011719 C 800.933594 62.011719 802.820312 62.007812 804.703125 62.003906 C 806.523438 62 808.339844 61.996094 810.15625 61.996094 C 810.851562 61.996094 811.546875 61.992188 812.242188 61.992188 C 813.214844 61.988281 814.183594 61.988281 815.152344 61.988281 L 816.035156 61.984375 C 816.710938 61.984375 817.386719 62.007812 818.0625 62.035156 L 818.457031 62.429688 C 818.496094 63.492188 818.511719 64.542969 818.507812 65.601562 L 818.511719 66.625 C 818.515625 67.761719 818.515625 68.898438 818.515625 70.039062 L 818.519531 72.472656 C 818.519531 74.226562 818.523438 75.984375 818.523438 77.738281 C 818.527344 80.515625 818.53125 83.292969 818.539062 86.074219 L 818.546875 88.925781 L 818.550781 90.371094 C 818.570312 96.839844 818.582031 103.308594 818.585938 109.78125 C 818.589844 114.140625 818.597656 118.5 818.613281 122.859375 C 818.621094 125.167969 818.625 127.476562 818.625 129.78125 C 818.625 131.957031 818.628906 134.132812 818.640625 136.304688 C 818.640625 137.101562 818.640625 137.894531 818.640625 138.6875 C 818.621094 144.554688 819.140625 149.839844 821.960938 155.109375 L 822.378906 155.914062 C 823.402344 157.84375 824.535156 159.601562 825.960938 161.261719 L 826.570312 162.042969 C 829.859375 166.097656 834.5625 168.871094 839.386719 170.75 C 844.921875 172.605469 850.574219 172.878906 856.296875 171.863281 C 861.765625 170.617188 866.875 168.121094 871.054688 164.351562 C 875.164062 160.492188 877.957031 156.082031 879.753906 150.742188 C 880.882812 147 881.304688 143.464844 881.3125 139.574219 L 881.316406 138.5625 C 881.324219 137.453125 881.328125 136.34375 881.328125 135.234375 L 881.339844 132.835938 C 881.351562 130.675781 881.359375 128.511719 881.367188 126.351562 C 881.378906 124.089844 881.386719 121.828125 881.398438 119.566406 C 881.417969 115.285156 881.4375 111.003906 881.453125 106.726562 C 881.472656 101.851562 881.496094 96.976562 881.515625 92.105469 C 881.5625 82.082031 881.605469 72.058594 881.644531 62.035156 L 913.238281 62.035156 C 913.253906 72.742188 913.269531 83.449219 913.277344 94.160156 C 913.28125 99.132812 913.289062 104.105469 913.296875 109.078125 C 913.304688 113.414062 913.308594 117.75 913.3125 122.085938 C 913.3125 124.378906 913.316406 126.675781 913.320312 128.96875 C 913.324219 131.132812 913.328125 133.296875 913.324219 135.460938 C 913.324219 136.25 913.328125 137.039062 913.332031 137.828125 C 913.355469 143.96875 913.050781 149.96875 911.558594 155.949219 L 911.296875 157.007812 C 909.144531 165.441406 905.246094 173.433594 899.808594 180.238281 L 899.253906 180.9375 C 892.144531 189.753906 883 196.335938 872.476562 200.5 C 868.773438 201.890625 864.984375 202.804688 861.109375 203.5625 L 859.644531 203.859375 C 849.1875 205.59375 838.285156 204.28125 828.332031 200.796875 C 817.496094 196.6875 807.980469 189.84375 800.625 180.882812 C 798.761719 178.542969 797.109375 176.078125 795.554688 173.519531 L 795.128906 172.820312 C 789.828125 163.9375 786.941406 153.257812 786.777344 142.929688 C 786.765625 141.097656 786.769531 139.265625 786.773438 137.433594 L 786.773438 134.953125 C 786.773438 132.730469 786.78125 130.503906 786.785156 128.28125 C 786.789062 125.945312 786.789062 123.617188 786.792969 121.285156 C 786.792969 116.875 786.800781 112.46875 786.808594 108.0625 C 786.816406 103.039062 786.820312 98.019531 786.824219 92.996094 C 786.832031 82.675781 786.847656 72.355469 786.863281 62.035156 M 736.785156 69.546875 C 743.539062 73.0625 749.300781 77.402344 754.878906 82.589844 L 755.671875 83.324219 C 761.421875 88.820312 766.09375 95.984375 769.488281 103.148438 L 769.488281 103.9375 C 764.582031 104.03125 759.679688 104.101562 754.769531 104.144531 C 752.492188 104.164062 750.214844 104.191406 747.9375 104.238281 C 745.734375 104.28125 743.53125 104.304688 741.328125 104.3125 C 740.492188 104.320312 739.65625 104.335938 738.820312 104.355469 C 732.4375 104.515625 732.4375 104.515625 730.332031 103.546875 C 728.714844 102.554688 727.40625 101.308594 726.046875 99.984375 C 725.046875 99.328125 724.023438 98.789062 722.9375 98.28125 L 722.144531 97.898438 C 715.148438 94.613281 708.074219 93.5 700.378906 94.054688 C 693.71875 94.894531 687.246094 97.390625 681.84375 101.382812 C 675.660156 106.089844 671.425781 111.84375 668.390625 118.960938 C 667.753906 120.65625 667.242188 122.34375 666.8125 124.101562 L 666.542969 125.15625 C 665.105469 131.996094 665.742188 139.226562 667.851562 145.835938 C 670.164062 152.710938 674.078125 158.113281 679.308594 163.039062 C 684.675781 167.699219 690.988281 170.4375 697.910156 171.863281 C 704.726562 173.097656 711.613281 172.414062 718.175781 170.242188 C 724.125 168.015625 729.53125 164.667969 733.710938 159.828125 L 734.34375 159.285156 C 735.539062 159.175781 736.652344 159.136719 737.847656 159.152344 L 738.933594 159.152344 C 740.121094 159.152344 741.304688 159.160156 742.492188 159.171875 C 743.3125 159.171875 744.132812 159.175781 744.957031 159.175781 C 747.121094 159.179688 749.285156 159.191406 751.449219 159.203125 C 753.65625 159.214844 755.863281 159.222656 758.070312 159.230469 C 762.402344 159.242188 766.734375 159.261719 771.070312 159.285156 C 770.757812 160.039062 770.445312 160.796875 770.132812 161.550781 L 769.605469 162.824219 C 767.535156 167.695312 764.804688 172.09375 761.589844 176.285156 L 760.800781 177.34375 C 753.039062 187.328125 742.8125 194.78125 731.183594 199.609375 C 720.136719 204.0625 707.605469 205.464844 695.8125 204.03125 C 683.367188 202.242188 671.546875 197.535156 661.628906 189.75 C 659.613281 188.09375 657.65625 186.375 655.753906 184.585938 L 655.15625 184.03125 C 646.320312 175.722656 640.199219 165.050781 636.601562 153.503906 C 635.605469 150.085938 634.96875 146.589844 634.429688 143.078125 L 634.199219 141.644531 C 632.691406 128.859375 634.894531 116.066406 639.878906 104.277344 C 644.785156 93.160156 652.800781 83.195312 662.554688 75.984375 C 672.679688 68.65625 684.382812 63.859375 696.824219 62.429688 L 697.953125 62.296875 C 711.257812 60.964844 724.855469 63.515625 736.785156 69.546875 M 1157.6875 62.035156 L 1157.6875 93.660156 C 1156.554688 94.039062 1155.535156 94.164062 1154.351562 94.269531 C 1147.242188 94.945312 1140.820312 97.226562 1134.878906 101.246094 C 1133.582031 102.191406 1132.394531 103.234375 1131.226562 104.335938 C 1130.914062 104.625 1130.597656 104.910156 1130.273438 105.207031 C 1125.398438 109.863281 1122.246094 115.835938 1120.171875 122.191406 C 1118.992188 126.679688 1118.863281 130.941406 1118.859375 135.550781 L 1118.847656 137.808594 C 1118.835938 139.839844 1118.832031 141.871094 1118.824219 143.902344 C 1118.820312 146.03125 1118.808594 148.15625 1118.800781 150.285156 C 1118.78125 154.304688 1118.765625 158.328125 1118.753906 162.351562 C 1118.738281 166.933594 1118.71875 171.515625 1118.699219 176.09375 C 1118.65625 185.515625 1118.625 194.933594 1118.589844 204.355469 L 1087 204.355469 C 1086.972656 194.226562 1086.949219 184.097656 1086.9375 173.972656 C 1086.929688 169.269531 1086.921875 164.566406 1086.910156 159.863281 C 1086.898438 155.757812 1086.890625 151.65625 1086.886719 147.554688 C 1086.886719 145.386719 1086.882812 143.214844 1086.871094 141.046875 C 1086.863281 139 1086.863281 136.949219 1086.863281 134.902344 C 1086.863281 134.15625 1086.863281 133.410156 1086.855469 132.664062 C 1086.820312 126.28125 1087.433594 120.058594 1089.292969 113.921875 C 1089.394531 113.574219 1089.496094 113.230469 1089.601562 112.875 C 1090.527344 109.816406 1091.613281 106.859375 1092.921875 103.9375 C 1093.03125 103.691406 1093.144531 103.445312 1093.257812 103.1875 C 1098.074219 92.589844 1105.917969 82.890625 1115.300781 75.988281 C 1126.492188 68.171875 1138.78125 63.40625 1152.40625 62.15625 C 1154.179688 62.019531 1155.890625 62.035156 1157.6875 62.035156 M 1173.484375 62.035156 L 1205.078125 62.035156 L 1205.078125 204.355469 L 1173.484375 204.355469 Z M 993.402344 22.894531 L 1025.785156 22.894531 C 1025.171875 24.429688 1024.546875 25.730469 1023.730469 27.152344 L 1022.960938 28.5 L 1022.132812 29.9375 L 1021.277344 31.429688 C 1018.589844 36.109375 1015.878906 40.777344 1013.148438 45.429688 L 1012.417969 46.675781 C 1011.699219 47.902344 1010.980469 49.125 1010.261719 50.347656 C 1010.042969 50.722656 1009.820312 51.097656 1009.59375 51.484375 L 1008.984375 52.519531 L 1008.445312 53.433594 C 1008.015625 54.125 1008.015625 54.125 1007.621094 54.523438 C 1006.628906 54.558594 1005.632812 54.574219 1004.640625 54.566406 L 1003.695312 54.566406 C 1002.65625 54.566406 1001.621094 54.5625 1000.585938 54.5625 L 998.433594 54.558594 C 996.546875 54.558594 994.65625 54.554688 992.765625 54.550781 C 990.839844 54.546875 988.910156 54.542969 986.984375 54.542969 C 983.199219 54.539062 979.417969 54.53125 975.632812 54.523438 C 976.179688 53.125 976.78125 51.832031 977.515625 50.523438 L 978.175781 49.339844 L 978.890625 48.074219 L 979.636719 46.746094 C 982.203125 42.191406 984.84375 37.683594 987.480469 33.175781 Z M 1194.203125 23.21875 C 1197.160156 24.3125 1199.40625 26.121094 1201.523438 28.429688 C 1203.390625 30.6875 1204.574219 33.042969 1205.078125 35.941406 C 1205.390625 39.019531 1205.136719 41.769531 1204.042969 44.671875 C 1202.6875 47.535156 1200.9375 49.863281 1198.386719 51.753906 C 1195.515625 53.585938 1192.71875 54.335938 1189.328125 54.546875 C 1186.390625 54.484375 1183.476562 53.632812 1180.90625 52.207031 C 1178.023438 50.375 1176.265625 48.050781 1174.667969 45.035156 C 1173.355469 42.09375 1173.203125 39.125 1173.484375 35.941406 C 1173.980469 33.027344 1175.226562 30.742188 1177.039062 28.429688 C 1179.148438 26.109375 1181.375 24.445312 1184.285156 23.289062 C 1187.527344 22.40625 1190.941406 22.449219 1194.203125 23.21875 "/></g></g></svg>